<mxfile host="Electron" agent="Mozilla/5.0 (Windows NT 10.0; Win64; x64) AppleWebKit/537.36 (KHTML, like Gecko) draw.io/27.0.5 Chrome/134.0.6998.205 Electron/35.3.0 Safari/537.36" version="27.0.5">
  <diagram name="Page-1" id="bReS5ygWO1-imh9GWNZc">
    <mxGraphModel dx="1426" dy="841" grid="1" gridSize="10" guides="1" tooltips="1" connect="1" arrows="1" fold="1" page="1" pageScale="1" pageWidth="850" pageHeight="1100" math="0" shadow="0">
      <root>
        <mxCell id="0" />
        <mxCell id="1" parent="0" />
        <mxCell id="y-yTcI-RV5eLXglRJxMU-177" style="edgeStyle=orthogonalEdgeStyle;rounded=0;orthogonalLoop=1;jettySize=auto;html=1;endArrow=ERzeroToMany;endFill=0;startArrow=ERmandOne;startFill=0;" edge="1" parent="1" source="y-yTcI-RV5eLXglRJxMU-103" target="y-yTcI-RV5eLXglRJxMU-130">
          <mxGeometry relative="1" as="geometry" />
        </mxCell>
        <mxCell id="y-yTcI-RV5eLXglRJxMU-178" style="edgeStyle=orthogonalEdgeStyle;rounded=0;orthogonalLoop=1;jettySize=auto;html=1;endArrow=ERzeroToMany;endFill=0;startArrow=ERmandOne;startFill=0;" edge="1" parent="1" source="y-yTcI-RV5eLXglRJxMU-103" target="y-yTcI-RV5eLXglRJxMU-112">
          <mxGeometry relative="1" as="geometry" />
        </mxCell>
        <mxCell id="y-yTcI-RV5eLXglRJxMU-103" value="BEPERFIL_391IAU" style="shape=table;startSize=25;container=1;collapsible=0;childLayout=tableLayout;fixedRows=1;rowLines=1;fontStyle=1;align=center;resizeLast=1;" vertex="1" parent="1">
          <mxGeometry x="24" y="31.5" width="189" height="129" as="geometry" />
        </mxCell>
        <mxCell id="y-yTcI-RV5eLXglRJxMU-104" style="shape=tableRow;horizontal=0;startSize=0;swimlaneHead=0;swimlaneBody=0;fillColor=none;collapsible=0;dropTarget=0;points=[[0,0.5],[1,0.5]];portConstraint=eastwest;top=0;left=0;right=0;bottom=0;" vertex="1" parent="y-yTcI-RV5eLXglRJxMU-103">
          <mxGeometry y="25" width="189" height="52" as="geometry" />
        </mxCell>
        <mxCell id="y-yTcI-RV5eLXglRJxMU-105" value="int" style="shape=partialRectangle;connectable=0;fillColor=none;top=0;left=0;bottom=0;right=0;align=left;spacingLeft=2;overflow=hidden;fontSize=11;" vertex="1" parent="y-yTcI-RV5eLXglRJxMU-104">
          <mxGeometry width="36" height="52" as="geometry">
            <mxRectangle width="36" height="52" as="alternateBounds" />
          </mxGeometry>
        </mxCell>
        <mxCell id="y-yTcI-RV5eLXglRJxMU-106" value="IDRol" style="shape=partialRectangle;connectable=0;fillColor=none;top=0;left=0;bottom=0;right=0;align=left;spacingLeft=2;overflow=hidden;fontSize=11;" vertex="1" parent="y-yTcI-RV5eLXglRJxMU-104">
          <mxGeometry x="36" width="131" height="52" as="geometry">
            <mxRectangle width="131" height="52" as="alternateBounds" />
          </mxGeometry>
        </mxCell>
        <mxCell id="y-yTcI-RV5eLXglRJxMU-107" value="PK" style="shape=partialRectangle;connectable=0;fillColor=none;top=0;left=0;bottom=0;right=0;align=left;spacingLeft=2;overflow=hidden;fontSize=11;" vertex="1" parent="y-yTcI-RV5eLXglRJxMU-104">
          <mxGeometry x="167" width="22" height="52" as="geometry">
            <mxRectangle width="22" height="52" as="alternateBounds" />
          </mxGeometry>
        </mxCell>
        <mxCell id="y-yTcI-RV5eLXglRJxMU-108" style="shape=tableRow;horizontal=0;startSize=0;swimlaneHead=0;swimlaneBody=0;fillColor=none;collapsible=0;dropTarget=0;points=[[0,0.5],[1,0.5]];portConstraint=eastwest;top=0;left=0;right=0;bottom=0;" vertex="1" parent="y-yTcI-RV5eLXglRJxMU-103">
          <mxGeometry y="77" width="189" height="52" as="geometry" />
        </mxCell>
        <mxCell id="y-yTcI-RV5eLXglRJxMU-109" value="string" style="shape=partialRectangle;connectable=0;fillColor=none;top=0;left=0;bottom=0;right=0;align=left;spacingLeft=2;overflow=hidden;fontSize=11;" vertex="1" parent="y-yTcI-RV5eLXglRJxMU-108">
          <mxGeometry width="36" height="52" as="geometry">
            <mxRectangle width="36" height="52" as="alternateBounds" />
          </mxGeometry>
        </mxCell>
        <mxCell id="y-yTcI-RV5eLXglRJxMU-110" value="Nombre" style="shape=partialRectangle;connectable=0;fillColor=none;top=0;left=0;bottom=0;right=0;align=left;spacingLeft=2;overflow=hidden;fontSize=11;" vertex="1" parent="y-yTcI-RV5eLXglRJxMU-108">
          <mxGeometry x="36" width="131" height="52" as="geometry">
            <mxRectangle width="131" height="52" as="alternateBounds" />
          </mxGeometry>
        </mxCell>
        <mxCell id="y-yTcI-RV5eLXglRJxMU-111" value="" style="shape=partialRectangle;connectable=0;fillColor=none;top=0;left=0;bottom=0;right=0;align=left;spacingLeft=2;overflow=hidden;fontSize=11;" vertex="1" parent="y-yTcI-RV5eLXglRJxMU-108">
          <mxGeometry x="167" width="22" height="52" as="geometry">
            <mxRectangle width="22" height="52" as="alternateBounds" />
          </mxGeometry>
        </mxCell>
        <mxCell id="y-yTcI-RV5eLXglRJxMU-180" style="edgeStyle=orthogonalEdgeStyle;rounded=0;orthogonalLoop=1;jettySize=auto;html=1;startArrow=ERzeroToMany;startFill=0;endArrow=ERmandOne;endFill=0;" edge="1" parent="1" source="y-yTcI-RV5eLXglRJxMU-112" target="y-yTcI-RV5eLXglRJxMU-121">
          <mxGeometry relative="1" as="geometry" />
        </mxCell>
        <mxCell id="y-yTcI-RV5eLXglRJxMU-112" value="PERFILPERMISO_391IAU" style="shape=table;startSize=25;container=1;collapsible=0;childLayout=tableLayout;fixedRows=1;rowLines=1;fontStyle=1;align=center;resizeLast=1;" vertex="1" parent="1">
          <mxGeometry x="10" y="284" width="217" height="129" as="geometry" />
        </mxCell>
        <mxCell id="y-yTcI-RV5eLXglRJxMU-113" style="shape=tableRow;horizontal=0;startSize=0;swimlaneHead=0;swimlaneBody=0;fillColor=none;collapsible=0;dropTarget=0;points=[[0,0.5],[1,0.5]];portConstraint=eastwest;top=0;left=0;right=0;bottom=0;" vertex="1" parent="y-yTcI-RV5eLXglRJxMU-112">
          <mxGeometry y="25" width="217" height="52" as="geometry" />
        </mxCell>
        <mxCell id="y-yTcI-RV5eLXglRJxMU-114" value="int" style="shape=partialRectangle;connectable=0;fillColor=none;top=0;left=0;bottom=0;right=0;align=left;spacingLeft=2;overflow=hidden;fontSize=11;" vertex="1" parent="y-yTcI-RV5eLXglRJxMU-113">
          <mxGeometry width="18" height="52" as="geometry">
            <mxRectangle width="18" height="52" as="alternateBounds" />
          </mxGeometry>
        </mxCell>
        <mxCell id="y-yTcI-RV5eLXglRJxMU-115" value="IDRol" style="shape=partialRectangle;connectable=0;fillColor=none;top=0;left=0;bottom=0;right=0;align=left;spacingLeft=2;overflow=hidden;fontSize=11;" vertex="1" parent="y-yTcI-RV5eLXglRJxMU-113">
          <mxGeometry x="18" width="177" height="52" as="geometry">
            <mxRectangle width="177" height="52" as="alternateBounds" />
          </mxGeometry>
        </mxCell>
        <mxCell id="y-yTcI-RV5eLXglRJxMU-116" value="FK" style="shape=partialRectangle;connectable=0;fillColor=none;top=0;left=0;bottom=0;right=0;align=left;spacingLeft=2;overflow=hidden;fontSize=11;" vertex="1" parent="y-yTcI-RV5eLXglRJxMU-113">
          <mxGeometry x="195" width="22" height="52" as="geometry">
            <mxRectangle width="22" height="52" as="alternateBounds" />
          </mxGeometry>
        </mxCell>
        <mxCell id="y-yTcI-RV5eLXglRJxMU-117" style="shape=tableRow;horizontal=0;startSize=0;swimlaneHead=0;swimlaneBody=0;fillColor=none;collapsible=0;dropTarget=0;points=[[0,0.5],[1,0.5]];portConstraint=eastwest;top=0;left=0;right=0;bottom=0;" vertex="1" parent="y-yTcI-RV5eLXglRJxMU-112">
          <mxGeometry y="77" width="217" height="52" as="geometry" />
        </mxCell>
        <mxCell id="y-yTcI-RV5eLXglRJxMU-118" value="int" style="shape=partialRectangle;connectable=0;fillColor=none;top=0;left=0;bottom=0;right=0;align=left;spacingLeft=2;overflow=hidden;fontSize=11;" vertex="1" parent="y-yTcI-RV5eLXglRJxMU-117">
          <mxGeometry width="18" height="52" as="geometry">
            <mxRectangle width="18" height="52" as="alternateBounds" />
          </mxGeometry>
        </mxCell>
        <mxCell id="y-yTcI-RV5eLXglRJxMU-119" value="IDPermiso" style="shape=partialRectangle;connectable=0;fillColor=none;top=0;left=0;bottom=0;right=0;align=left;spacingLeft=2;overflow=hidden;fontSize=11;" vertex="1" parent="y-yTcI-RV5eLXglRJxMU-117">
          <mxGeometry x="18" width="177" height="52" as="geometry">
            <mxRectangle width="177" height="52" as="alternateBounds" />
          </mxGeometry>
        </mxCell>
        <mxCell id="y-yTcI-RV5eLXglRJxMU-120" value="FK" style="shape=partialRectangle;connectable=0;fillColor=none;top=0;left=0;bottom=0;right=0;align=left;spacingLeft=2;overflow=hidden;fontSize=11;" vertex="1" parent="y-yTcI-RV5eLXglRJxMU-117">
          <mxGeometry x="195" width="22" height="52" as="geometry">
            <mxRectangle width="22" height="52" as="alternateBounds" />
          </mxGeometry>
        </mxCell>
        <mxCell id="y-yTcI-RV5eLXglRJxMU-181" style="edgeStyle=orthogonalEdgeStyle;rounded=0;orthogonalLoop=1;jettySize=auto;html=1;startArrow=ERmandOne;startFill=0;endArrow=ERzeroToMany;endFill=0;" edge="1" parent="1" source="y-yTcI-RV5eLXglRJxMU-121" target="y-yTcI-RV5eLXglRJxMU-152">
          <mxGeometry relative="1" as="geometry" />
        </mxCell>
        <mxCell id="y-yTcI-RV5eLXglRJxMU-121" value="PERMISO_391IAU" style="shape=table;startSize=25;container=1;collapsible=0;childLayout=tableLayout;fixedRows=1;rowLines=1;fontStyle=1;align=center;resizeLast=1;" vertex="1" parent="1">
          <mxGeometry x="262" y="284" width="204" height="129" as="geometry" />
        </mxCell>
        <mxCell id="y-yTcI-RV5eLXglRJxMU-122" style="shape=tableRow;horizontal=0;startSize=0;swimlaneHead=0;swimlaneBody=0;fillColor=none;collapsible=0;dropTarget=0;points=[[0,0.5],[1,0.5]];portConstraint=eastwest;top=0;left=0;right=0;bottom=0;" vertex="1" parent="y-yTcI-RV5eLXglRJxMU-121">
          <mxGeometry y="25" width="204" height="52" as="geometry" />
        </mxCell>
        <mxCell id="y-yTcI-RV5eLXglRJxMU-123" value="int" style="shape=partialRectangle;connectable=0;fillColor=none;top=0;left=0;bottom=0;right=0;align=left;spacingLeft=2;overflow=hidden;fontSize=11;" vertex="1" parent="y-yTcI-RV5eLXglRJxMU-122">
          <mxGeometry width="36" height="52" as="geometry">
            <mxRectangle width="36" height="52" as="alternateBounds" />
          </mxGeometry>
        </mxCell>
        <mxCell id="y-yTcI-RV5eLXglRJxMU-124" value="IDPermiso" style="shape=partialRectangle;connectable=0;fillColor=none;top=0;left=0;bottom=0;right=0;align=left;spacingLeft=2;overflow=hidden;fontSize=11;" vertex="1" parent="y-yTcI-RV5eLXglRJxMU-122">
          <mxGeometry x="36" width="146" height="52" as="geometry">
            <mxRectangle width="146" height="52" as="alternateBounds" />
          </mxGeometry>
        </mxCell>
        <mxCell id="y-yTcI-RV5eLXglRJxMU-125" value="PK" style="shape=partialRectangle;connectable=0;fillColor=none;top=0;left=0;bottom=0;right=0;align=left;spacingLeft=2;overflow=hidden;fontSize=11;" vertex="1" parent="y-yTcI-RV5eLXglRJxMU-122">
          <mxGeometry x="182" width="22" height="52" as="geometry">
            <mxRectangle width="22" height="52" as="alternateBounds" />
          </mxGeometry>
        </mxCell>
        <mxCell id="y-yTcI-RV5eLXglRJxMU-126" style="shape=tableRow;horizontal=0;startSize=0;swimlaneHead=0;swimlaneBody=0;fillColor=none;collapsible=0;dropTarget=0;points=[[0,0.5],[1,0.5]];portConstraint=eastwest;top=0;left=0;right=0;bottom=0;" vertex="1" parent="y-yTcI-RV5eLXglRJxMU-121">
          <mxGeometry y="77" width="204" height="52" as="geometry" />
        </mxCell>
        <mxCell id="y-yTcI-RV5eLXglRJxMU-127" value="string" style="shape=partialRectangle;connectable=0;fillColor=none;top=0;left=0;bottom=0;right=0;align=left;spacingLeft=2;overflow=hidden;fontSize=11;" vertex="1" parent="y-yTcI-RV5eLXglRJxMU-126">
          <mxGeometry width="36" height="52" as="geometry">
            <mxRectangle width="36" height="52" as="alternateBounds" />
          </mxGeometry>
        </mxCell>
        <mxCell id="y-yTcI-RV5eLXglRJxMU-128" value="Nombre" style="shape=partialRectangle;connectable=0;fillColor=none;top=0;left=0;bottom=0;right=0;align=left;spacingLeft=2;overflow=hidden;fontSize=11;" vertex="1" parent="y-yTcI-RV5eLXglRJxMU-126">
          <mxGeometry x="36" width="146" height="52" as="geometry">
            <mxRectangle width="146" height="52" as="alternateBounds" />
          </mxGeometry>
        </mxCell>
        <mxCell id="y-yTcI-RV5eLXglRJxMU-129" value="" style="shape=partialRectangle;connectable=0;fillColor=none;top=0;left=0;bottom=0;right=0;align=left;spacingLeft=2;overflow=hidden;fontSize=11;" vertex="1" parent="y-yTcI-RV5eLXglRJxMU-126">
          <mxGeometry x="182" width="22" height="52" as="geometry">
            <mxRectangle width="22" height="52" as="alternateBounds" />
          </mxGeometry>
        </mxCell>
        <mxCell id="y-yTcI-RV5eLXglRJxMU-182" style="edgeStyle=orthogonalEdgeStyle;rounded=0;orthogonalLoop=1;jettySize=auto;html=1;endArrow=ERmandOne;endFill=0;startArrow=ERzeroToMany;startFill=0;" edge="1" parent="1" source="y-yTcI-RV5eLXglRJxMU-130" target="y-yTcI-RV5eLXglRJxMU-139">
          <mxGeometry relative="1" as="geometry" />
        </mxCell>
        <mxCell id="y-yTcI-RV5eLXglRJxMU-130" value="PERFILFAMILIA_391IAU" style="shape=table;startSize=25;container=1;collapsible=0;childLayout=tableLayout;fixedRows=1;rowLines=1;fontStyle=1;align=center;resizeLast=1;" vertex="1" parent="1">
          <mxGeometry x="259" y="31.5" width="210" height="129" as="geometry" />
        </mxCell>
        <mxCell id="y-yTcI-RV5eLXglRJxMU-131" style="shape=tableRow;horizontal=0;startSize=0;swimlaneHead=0;swimlaneBody=0;fillColor=none;collapsible=0;dropTarget=0;points=[[0,0.5],[1,0.5]];portConstraint=eastwest;top=0;left=0;right=0;bottom=0;" vertex="1" parent="y-yTcI-RV5eLXglRJxMU-130">
          <mxGeometry y="25" width="210" height="52" as="geometry" />
        </mxCell>
        <mxCell id="y-yTcI-RV5eLXglRJxMU-132" value="int" style="shape=partialRectangle;connectable=0;fillColor=none;top=0;left=0;bottom=0;right=0;align=left;spacingLeft=2;overflow=hidden;fontSize=11;" vertex="1" parent="y-yTcI-RV5eLXglRJxMU-131">
          <mxGeometry width="18" height="52" as="geometry">
            <mxRectangle width="18" height="52" as="alternateBounds" />
          </mxGeometry>
        </mxCell>
        <mxCell id="y-yTcI-RV5eLXglRJxMU-133" value="IDRol" style="shape=partialRectangle;connectable=0;fillColor=none;top=0;left=0;bottom=0;right=0;align=left;spacingLeft=2;overflow=hidden;fontSize=11;" vertex="1" parent="y-yTcI-RV5eLXglRJxMU-131">
          <mxGeometry x="18" width="170" height="52" as="geometry">
            <mxRectangle width="170" height="52" as="alternateBounds" />
          </mxGeometry>
        </mxCell>
        <mxCell id="y-yTcI-RV5eLXglRJxMU-134" value="FK" style="shape=partialRectangle;connectable=0;fillColor=none;top=0;left=0;bottom=0;right=0;align=left;spacingLeft=2;overflow=hidden;fontSize=11;" vertex="1" parent="y-yTcI-RV5eLXglRJxMU-131">
          <mxGeometry x="188" width="22" height="52" as="geometry">
            <mxRectangle width="22" height="52" as="alternateBounds" />
          </mxGeometry>
        </mxCell>
        <mxCell id="y-yTcI-RV5eLXglRJxMU-135" style="shape=tableRow;horizontal=0;startSize=0;swimlaneHead=0;swimlaneBody=0;fillColor=none;collapsible=0;dropTarget=0;points=[[0,0.5],[1,0.5]];portConstraint=eastwest;top=0;left=0;right=0;bottom=0;" vertex="1" parent="y-yTcI-RV5eLXglRJxMU-130">
          <mxGeometry y="77" width="210" height="52" as="geometry" />
        </mxCell>
        <mxCell id="y-yTcI-RV5eLXglRJxMU-136" value="int" style="shape=partialRectangle;connectable=0;fillColor=none;top=0;left=0;bottom=0;right=0;align=left;spacingLeft=2;overflow=hidden;fontSize=11;" vertex="1" parent="y-yTcI-RV5eLXglRJxMU-135">
          <mxGeometry width="18" height="52" as="geometry">
            <mxRectangle width="18" height="52" as="alternateBounds" />
          </mxGeometry>
        </mxCell>
        <mxCell id="y-yTcI-RV5eLXglRJxMU-137" value="IDFamilia" style="shape=partialRectangle;connectable=0;fillColor=none;top=0;left=0;bottom=0;right=0;align=left;spacingLeft=2;overflow=hidden;fontSize=11;" vertex="1" parent="y-yTcI-RV5eLXglRJxMU-135">
          <mxGeometry x="18" width="170" height="52" as="geometry">
            <mxRectangle width="170" height="52" as="alternateBounds" />
          </mxGeometry>
        </mxCell>
        <mxCell id="y-yTcI-RV5eLXglRJxMU-138" value="FK" style="shape=partialRectangle;connectable=0;fillColor=none;top=0;left=0;bottom=0;right=0;align=left;spacingLeft=2;overflow=hidden;fontSize=11;" vertex="1" parent="y-yTcI-RV5eLXglRJxMU-135">
          <mxGeometry x="188" width="22" height="52" as="geometry">
            <mxRectangle width="22" height="52" as="alternateBounds" />
          </mxGeometry>
        </mxCell>
        <mxCell id="y-yTcI-RV5eLXglRJxMU-183" style="edgeStyle=orthogonalEdgeStyle;rounded=0;orthogonalLoop=1;jettySize=auto;html=1;endArrow=ERzeroToMany;endFill=0;startArrow=ERmandOne;startFill=0;" edge="1" parent="1" source="y-yTcI-RV5eLXglRJxMU-139" target="y-yTcI-RV5eLXglRJxMU-152">
          <mxGeometry relative="1" as="geometry" />
        </mxCell>
        <mxCell id="y-yTcI-RV5eLXglRJxMU-184" style="edgeStyle=orthogonalEdgeStyle;rounded=0;orthogonalLoop=1;jettySize=auto;html=1;startArrow=ERmandOne;startFill=0;endArrow=ERzeroToMany;endFill=0;" edge="1" parent="1" source="y-yTcI-RV5eLXglRJxMU-139" target="y-yTcI-RV5eLXglRJxMU-161">
          <mxGeometry relative="1" as="geometry">
            <Array as="points">
              <mxPoint x="780" y="96" />
              <mxPoint x="780" y="505" />
            </Array>
          </mxGeometry>
        </mxCell>
        <mxCell id="y-yTcI-RV5eLXglRJxMU-139" value="FAMILIA_391IAU" style="shape=table;startSize=25;container=1;collapsible=0;childLayout=tableLayout;fixedRows=1;rowLines=1;fontStyle=1;align=center;resizeLast=1;" vertex="1" parent="1">
          <mxGeometry x="509" y="10" width="242" height="172" as="geometry" />
        </mxCell>
        <mxCell id="y-yTcI-RV5eLXglRJxMU-140" style="shape=tableRow;horizontal=0;startSize=0;swimlaneHead=0;swimlaneBody=0;fillColor=none;collapsible=0;dropTarget=0;points=[[0,0.5],[1,0.5]];portConstraint=eastwest;top=0;left=0;right=0;bottom=0;" vertex="1" parent="y-yTcI-RV5eLXglRJxMU-139">
          <mxGeometry y="25" width="242" height="49" as="geometry" />
        </mxCell>
        <mxCell id="y-yTcI-RV5eLXglRJxMU-141" value="int" style="shape=partialRectangle;connectable=0;fillColor=none;top=0;left=0;bottom=0;right=0;align=left;spacingLeft=2;overflow=hidden;fontSize=11;" vertex="1" parent="y-yTcI-RV5eLXglRJxMU-140">
          <mxGeometry width="36" height="49" as="geometry">
            <mxRectangle width="36" height="49" as="alternateBounds" />
          </mxGeometry>
        </mxCell>
        <mxCell id="y-yTcI-RV5eLXglRJxMU-142" value="IDFamilia" style="shape=partialRectangle;connectable=0;fillColor=none;top=0;left=0;bottom=0;right=0;align=left;spacingLeft=2;overflow=hidden;fontSize=11;" vertex="1" parent="y-yTcI-RV5eLXglRJxMU-140">
          <mxGeometry x="36" width="184" height="49" as="geometry">
            <mxRectangle width="184" height="49" as="alternateBounds" />
          </mxGeometry>
        </mxCell>
        <mxCell id="y-yTcI-RV5eLXglRJxMU-143" value="PK" style="shape=partialRectangle;connectable=0;fillColor=none;top=0;left=0;bottom=0;right=0;align=left;spacingLeft=2;overflow=hidden;fontSize=11;" vertex="1" parent="y-yTcI-RV5eLXglRJxMU-140">
          <mxGeometry x="220" width="22" height="49" as="geometry">
            <mxRectangle width="22" height="49" as="alternateBounds" />
          </mxGeometry>
        </mxCell>
        <mxCell id="y-yTcI-RV5eLXglRJxMU-144" style="shape=tableRow;horizontal=0;startSize=0;swimlaneHead=0;swimlaneBody=0;fillColor=none;collapsible=0;dropTarget=0;points=[[0,0.5],[1,0.5]];portConstraint=eastwest;top=0;left=0;right=0;bottom=0;" vertex="1" parent="y-yTcI-RV5eLXglRJxMU-139">
          <mxGeometry y="74" width="242" height="49" as="geometry" />
        </mxCell>
        <mxCell id="y-yTcI-RV5eLXglRJxMU-145" value="string" style="shape=partialRectangle;connectable=0;fillColor=none;top=0;left=0;bottom=0;right=0;align=left;spacingLeft=2;overflow=hidden;fontSize=11;" vertex="1" parent="y-yTcI-RV5eLXglRJxMU-144">
          <mxGeometry width="36" height="49" as="geometry">
            <mxRectangle width="36" height="49" as="alternateBounds" />
          </mxGeometry>
        </mxCell>
        <mxCell id="y-yTcI-RV5eLXglRJxMU-146" value="NombreFamilia" style="shape=partialRectangle;connectable=0;fillColor=none;top=0;left=0;bottom=0;right=0;align=left;spacingLeft=2;overflow=hidden;fontSize=11;" vertex="1" parent="y-yTcI-RV5eLXglRJxMU-144">
          <mxGeometry x="36" width="184" height="49" as="geometry">
            <mxRectangle width="184" height="49" as="alternateBounds" />
          </mxGeometry>
        </mxCell>
        <mxCell id="y-yTcI-RV5eLXglRJxMU-147" value="" style="shape=partialRectangle;connectable=0;fillColor=none;top=0;left=0;bottom=0;right=0;align=left;spacingLeft=2;overflow=hidden;fontSize=11;" vertex="1" parent="y-yTcI-RV5eLXglRJxMU-144">
          <mxGeometry x="220" width="22" height="49" as="geometry">
            <mxRectangle width="22" height="49" as="alternateBounds" />
          </mxGeometry>
        </mxCell>
        <mxCell id="y-yTcI-RV5eLXglRJxMU-148" style="shape=tableRow;horizontal=0;startSize=0;swimlaneHead=0;swimlaneBody=0;fillColor=none;collapsible=0;dropTarget=0;points=[[0,0.5],[1,0.5]];portConstraint=eastwest;top=0;left=0;right=0;bottom=0;" vertex="1" parent="y-yTcI-RV5eLXglRJxMU-139">
          <mxGeometry y="123" width="242" height="49" as="geometry" />
        </mxCell>
        <mxCell id="y-yTcI-RV5eLXglRJxMU-149" value="bool" style="shape=partialRectangle;connectable=0;fillColor=none;top=0;left=0;bottom=0;right=0;align=left;spacingLeft=2;overflow=hidden;fontSize=11;" vertex="1" parent="y-yTcI-RV5eLXglRJxMU-148">
          <mxGeometry width="36" height="49" as="geometry">
            <mxRectangle width="36" height="49" as="alternateBounds" />
          </mxGeometry>
        </mxCell>
        <mxCell id="y-yTcI-RV5eLXglRJxMU-150" value="Profundidad" style="shape=partialRectangle;connectable=0;fillColor=none;top=0;left=0;bottom=0;right=0;align=left;spacingLeft=2;overflow=hidden;fontSize=11;" vertex="1" parent="y-yTcI-RV5eLXglRJxMU-148">
          <mxGeometry x="36" width="184" height="49" as="geometry">
            <mxRectangle width="184" height="49" as="alternateBounds" />
          </mxGeometry>
        </mxCell>
        <mxCell id="y-yTcI-RV5eLXglRJxMU-151" value="" style="shape=partialRectangle;connectable=0;fillColor=none;top=0;left=0;bottom=0;right=0;align=left;spacingLeft=2;overflow=hidden;fontSize=11;" vertex="1" parent="y-yTcI-RV5eLXglRJxMU-148">
          <mxGeometry x="220" width="22" height="49" as="geometry">
            <mxRectangle width="22" height="49" as="alternateBounds" />
          </mxGeometry>
        </mxCell>
        <mxCell id="y-yTcI-RV5eLXglRJxMU-152" value="PERMISOFAMILIA_391IAU" style="shape=table;startSize=25;container=1;collapsible=0;childLayout=tableLayout;fixedRows=1;rowLines=1;fontStyle=1;align=center;resizeLast=1;" vertex="1" parent="1">
          <mxGeometry x="518.5" y="284" width="223" height="129" as="geometry" />
        </mxCell>
        <mxCell id="y-yTcI-RV5eLXglRJxMU-153" style="shape=tableRow;horizontal=0;startSize=0;swimlaneHead=0;swimlaneBody=0;fillColor=none;collapsible=0;dropTarget=0;points=[[0,0.5],[1,0.5]];portConstraint=eastwest;top=0;left=0;right=0;bottom=0;" vertex="1" parent="y-yTcI-RV5eLXglRJxMU-152">
          <mxGeometry y="25" width="223" height="52" as="geometry" />
        </mxCell>
        <mxCell id="y-yTcI-RV5eLXglRJxMU-154" value="int" style="shape=partialRectangle;connectable=0;fillColor=none;top=0;left=0;bottom=0;right=0;align=left;spacingLeft=2;overflow=hidden;fontSize=11;" vertex="1" parent="y-yTcI-RV5eLXglRJxMU-153">
          <mxGeometry width="18" height="52" as="geometry">
            <mxRectangle width="18" height="52" as="alternateBounds" />
          </mxGeometry>
        </mxCell>
        <mxCell id="y-yTcI-RV5eLXglRJxMU-155" value="IDPermiso" style="shape=partialRectangle;connectable=0;fillColor=none;top=0;left=0;bottom=0;right=0;align=left;spacingLeft=2;overflow=hidden;fontSize=11;" vertex="1" parent="y-yTcI-RV5eLXglRJxMU-153">
          <mxGeometry x="18" width="183" height="52" as="geometry">
            <mxRectangle width="183" height="52" as="alternateBounds" />
          </mxGeometry>
        </mxCell>
        <mxCell id="y-yTcI-RV5eLXglRJxMU-156" value="FK" style="shape=partialRectangle;connectable=0;fillColor=none;top=0;left=0;bottom=0;right=0;align=left;spacingLeft=2;overflow=hidden;fontSize=11;" vertex="1" parent="y-yTcI-RV5eLXglRJxMU-153">
          <mxGeometry x="201" width="22" height="52" as="geometry">
            <mxRectangle width="22" height="52" as="alternateBounds" />
          </mxGeometry>
        </mxCell>
        <mxCell id="y-yTcI-RV5eLXglRJxMU-157" style="shape=tableRow;horizontal=0;startSize=0;swimlaneHead=0;swimlaneBody=0;fillColor=none;collapsible=0;dropTarget=0;points=[[0,0.5],[1,0.5]];portConstraint=eastwest;top=0;left=0;right=0;bottom=0;" vertex="1" parent="y-yTcI-RV5eLXglRJxMU-152">
          <mxGeometry y="77" width="223" height="52" as="geometry" />
        </mxCell>
        <mxCell id="y-yTcI-RV5eLXglRJxMU-158" value="int" style="shape=partialRectangle;connectable=0;fillColor=none;top=0;left=0;bottom=0;right=0;align=left;spacingLeft=2;overflow=hidden;fontSize=11;" vertex="1" parent="y-yTcI-RV5eLXglRJxMU-157">
          <mxGeometry width="18" height="52" as="geometry">
            <mxRectangle width="18" height="52" as="alternateBounds" />
          </mxGeometry>
        </mxCell>
        <mxCell id="y-yTcI-RV5eLXglRJxMU-159" value="IDFamilia" style="shape=partialRectangle;connectable=0;fillColor=none;top=0;left=0;bottom=0;right=0;align=left;spacingLeft=2;overflow=hidden;fontSize=11;" vertex="1" parent="y-yTcI-RV5eLXglRJxMU-157">
          <mxGeometry x="18" width="183" height="52" as="geometry">
            <mxRectangle width="183" height="52" as="alternateBounds" />
          </mxGeometry>
        </mxCell>
        <mxCell id="y-yTcI-RV5eLXglRJxMU-160" value="FK" style="shape=partialRectangle;connectable=0;fillColor=none;top=0;left=0;bottom=0;right=0;align=left;spacingLeft=2;overflow=hidden;fontSize=11;" vertex="1" parent="y-yTcI-RV5eLXglRJxMU-157">
          <mxGeometry x="201" width="22" height="52" as="geometry">
            <mxRectangle width="22" height="52" as="alternateBounds" />
          </mxGeometry>
        </mxCell>
        <mxCell id="y-yTcI-RV5eLXglRJxMU-161" value="FAMILIAFAMILIA_391IAU" style="shape=table;startSize=25;container=1;collapsible=0;childLayout=tableLayout;fixedRows=1;rowLines=1;fontStyle=1;align=center;resizeLast=1;" vertex="1" parent="1">
          <mxGeometry x="522.5" y="440" width="219" height="129" as="geometry" />
        </mxCell>
        <mxCell id="y-yTcI-RV5eLXglRJxMU-162" style="shape=tableRow;horizontal=0;startSize=0;swimlaneHead=0;swimlaneBody=0;fillColor=none;collapsible=0;dropTarget=0;points=[[0,0.5],[1,0.5]];portConstraint=eastwest;top=0;left=0;right=0;bottom=0;" vertex="1" parent="y-yTcI-RV5eLXglRJxMU-161">
          <mxGeometry y="25" width="219" height="52" as="geometry" />
        </mxCell>
        <mxCell id="y-yTcI-RV5eLXglRJxMU-163" value="int" style="shape=partialRectangle;connectable=0;fillColor=none;top=0;left=0;bottom=0;right=0;align=left;spacingLeft=2;overflow=hidden;fontSize=11;" vertex="1" parent="y-yTcI-RV5eLXglRJxMU-162">
          <mxGeometry width="18" height="52" as="geometry">
            <mxRectangle width="18" height="52" as="alternateBounds" />
          </mxGeometry>
        </mxCell>
        <mxCell id="y-yTcI-RV5eLXglRJxMU-164" value="IDFamiliaPadre" style="shape=partialRectangle;connectable=0;fillColor=none;top=0;left=0;bottom=0;right=0;align=left;spacingLeft=2;overflow=hidden;fontSize=11;" vertex="1" parent="y-yTcI-RV5eLXglRJxMU-162">
          <mxGeometry x="18" width="179" height="52" as="geometry">
            <mxRectangle width="179" height="52" as="alternateBounds" />
          </mxGeometry>
        </mxCell>
        <mxCell id="y-yTcI-RV5eLXglRJxMU-165" value="FK" style="shape=partialRectangle;connectable=0;fillColor=none;top=0;left=0;bottom=0;right=0;align=left;spacingLeft=2;overflow=hidden;fontSize=11;" vertex="1" parent="y-yTcI-RV5eLXglRJxMU-162">
          <mxGeometry x="197" width="22" height="52" as="geometry">
            <mxRectangle width="22" height="52" as="alternateBounds" />
          </mxGeometry>
        </mxCell>
        <mxCell id="y-yTcI-RV5eLXglRJxMU-166" style="shape=tableRow;horizontal=0;startSize=0;swimlaneHead=0;swimlaneBody=0;fillColor=none;collapsible=0;dropTarget=0;points=[[0,0.5],[1,0.5]];portConstraint=eastwest;top=0;left=0;right=0;bottom=0;" vertex="1" parent="y-yTcI-RV5eLXglRJxMU-161">
          <mxGeometry y="77" width="219" height="52" as="geometry" />
        </mxCell>
        <mxCell id="y-yTcI-RV5eLXglRJxMU-167" value="int" style="shape=partialRectangle;connectable=0;fillColor=none;top=0;left=0;bottom=0;right=0;align=left;spacingLeft=2;overflow=hidden;fontSize=11;" vertex="1" parent="y-yTcI-RV5eLXglRJxMU-166">
          <mxGeometry width="18" height="52" as="geometry">
            <mxRectangle width="18" height="52" as="alternateBounds" />
          </mxGeometry>
        </mxCell>
        <mxCell id="y-yTcI-RV5eLXglRJxMU-168" value="IDCompuesto" style="shape=partialRectangle;connectable=0;fillColor=none;top=0;left=0;bottom=0;right=0;align=left;spacingLeft=2;overflow=hidden;fontSize=11;" vertex="1" parent="y-yTcI-RV5eLXglRJxMU-166">
          <mxGeometry x="18" width="179" height="52" as="geometry">
            <mxRectangle width="179" height="52" as="alternateBounds" />
          </mxGeometry>
        </mxCell>
        <mxCell id="y-yTcI-RV5eLXglRJxMU-169" value="FK" style="shape=partialRectangle;connectable=0;fillColor=none;top=0;left=0;bottom=0;right=0;align=left;spacingLeft=2;overflow=hidden;fontSize=11;" vertex="1" parent="y-yTcI-RV5eLXglRJxMU-166">
          <mxGeometry x="197" width="22" height="52" as="geometry">
            <mxRectangle width="22" height="52" as="alternateBounds" />
          </mxGeometry>
        </mxCell>
      </root>
    </mxGraphModel>
  </diagram>
</mxfile>
